<svg xmlns="http://www.w3.org/2000/svg" fill="none" viewBox="0 0 128 128">
    <path d="M64,2.05a62,62,0,0,1,24.11,119A62,62,0,0,1,39.89,6.92,61.54,61.54,0,0,1,64,2.05m0-2a64,64,0,1,0,64,64A64,64,0,0,0,64,0Z" fill="#d9f99d"/><path d="M64,9.62a54.14,54.14,0,1,1-21.17,4.27A54.18,54.18,0,0,1,64,9.62m0-4.16A58.54,58.54,0,1,0,122.54,64,58.54,58.54,0,0,0,64,5.46Z" fill="#a3e635"/><path d="M64,23.68A40.31,40.31,0,0,1,92.51,92.51a40.32,40.32,0,1,1-44.2-65.66A39.85,39.85,0,0,1,64,23.68M64,16a48,48,0,1,0,48,48A48,48,0,0,0,64,16Z" fill="#65a30d"/><path class="moded" d="M64,43.34a20.66,20.66,0,1,1-14.61,6,20.53,20.53,0,0,1,14.61-6M64,29A35,35,0,1,0,99,64,35,35,0,0,0,64,29Z"/>
    <style>
        .moded { fill: #000; }
        @media (prefers-color-scheme: dark) {
            .moded { fill: #FFF; }
        }
    </style>
</svg>
