<?xml version="1.0" standalone="no"?>
<!DOCTYPE svg PUBLIC "-//W3C//DTD SVG 20010904//EN"
 "http://www.w3.org/TR/2001/REC-SVG-20010904/DTD/svg10.dtd">
<svg version="1.0" xmlns="http://www.w3.org/2000/svg"
 width="700.000000pt" height="700.000000pt" viewBox="0 0 700.000000 700.000000"
 preserveAspectRatio="xMidYMid meet">
<metadata>
Created by potrace 1.14, written by Peter Selinger 2001-2017
</metadata>
<g transform="translate(0.000000,700.000000) scale(0.100000,-0.100000)"
fill="#000000" stroke="none">
<path d="M3278 6995 c-1 -1 -41 -5 -88 -9 -47 -4 -101 -9 -120 -12 -580 -81
-1045 -254 -1509 -562 -63 -41 -122 -81 -130 -88 -9 -7 -52 -41 -96 -75 -425
-331 -812 -824 -1020 -1299 -25 -58 -52 -118 -59 -135 -51 -115 -148 -423
-171 -546 -3 -13 -11 -58 -20 -99 -29 -147 -35 -192 -52 -370 -15 -162 -8
-591 12 -711 2 -13 6 -46 9 -74 12 -105 35 -222 72 -370 26 -104 82 -289 94
-315 4 -8 29 -69 54 -136 55 -141 169 -372 246 -497 30 -48 60 -95 65 -105 38
-68 237 -329 314 -412 235 -254 433 -426 688 -596 77 -52 145 -94 149 -94 4 0
15 -6 23 -14 29 -26 335 -175 472 -230 242 -96 545 -177 798 -212 25 -3 57 -8
71 -10 163 -25 682 -25 842 1 13 2 46 7 73 10 72 10 86 12 120 19 17 3 44 8
60 11 727 138 1435 542 1935 1104 36 41 70 79 76 85 29 30 185 242 240 326
120 184 241 412 315 597 66 163 147 422 175 558 16 75 54 300 60 350 4 33 9
76 11 95 8 71 10 517 3 595 -17 172 -22 220 -25 225 -2 3 -6 30 -10 60 -3 30
-10 71 -15 90 -5 19 -12 51 -15 70 -23 134 -103 399 -177 585 -205 515 -585
1039 -998 1375 -30 25 -57 47 -60 50 -36 42 -336 244 -486 328 -341 191 -802
351 -1144 397 -19 3 -46 7 -60 10 -13 2 -54 7 -90 11 -36 3 -78 8 -95 11 -33
5 -531 13 -537 8z m532 -120 c194 -23 326 -45 460 -77 47 -11 92 -21 101 -23
49 -10 241 -74 359 -120 238 -93 420 -188 650 -340 728 -483 1246 -1242 1429
-2095 11 -52 23 -111 26 -130 3 -19 10 -60 15 -90 32 -195 44 -527 27 -765
-66 -913 -529 -1791 -1252 -2374 -373 -300 -818 -524 -1275 -641 -103 -27 -91
-24 -224 -50 -223 -44 -393 -58 -656 -54 -135 1 -261 5 -280 7 -19 3 -60 7
-90 11 -30 3 -68 9 -85 11 -57 9 -90 15 -115 20 -14 3 -41 8 -60 11 -158 25
-490 129 -694 219 -128 55 -298 142 -348 176 -14 11 -29 19 -32 19 -17 0 -301
194 -379 259 -136 114 -188 161 -287 260 -267 268 -483 571 -645 905 -113 235
-214 520 -261 737 -18 85 -45 231 -49 269 -3 25 -7 54 -10 65 -29 151 -27 633
4 850 6 39 12 88 15 110 24 192 126 541 228 779 261 614 693 1134 1244 1498
127 84 148 97 309 184 120 64 319 148 485 205 82 27 157 52 167 54 10 3 63 15
118 29 178 43 355 71 518 82 51 4 94 8 95 9 6 5 441 -4 492 -10z"/>
<path d="M3248 6695 c-2 -2 -30 -6 -63 -9 -360 -31 -785 -154 -1120 -324 -618
-313 -1103 -797 -1422 -1417 -146 -286 -271 -675 -308 -965 -4 -30 -9 -64 -11
-75 -20 -104 -27 -567 -11 -715 66 -628 289 -1180 677 -1677 81 -104 362 -394
445 -461 22 -17 69 -55 105 -83 273 -218 657 -418 1005 -523 66 -20 134 -41
150 -46 41 -13 319 -67 380 -74 143 -17 219 -21 425 -21 201 0 323 6 415 20
17 3 44 7 60 9 120 17 348 67 440 96 106 34 218 75 313 114 607 249 1134 697
1494 1271 195 310 369 759 423 1085 3 19 8 48 11 63 6 30 7 37 18 127 20 162
24 236 21 460 -1 135 -5 256 -8 270 -3 14 -8 50 -11 80 -6 53 -20 142 -32 205
-4 25 -21 99 -49 219 -2 11 -18 65 -36 120 -347 1126 -1306 1985 -2459 2201
-83 16 -142 25 -195 30 -33 4 -71 9 -85 12 -29 6 -566 14 -572 8z m447 -229
c181 -11 375 -42 545 -87 324 -85 611 -213 893 -397 604 -395 1051 -1014 1237
-1716 30 -114 64 -283 75 -371 3 -27 10 -84 15 -125 9 -76 6 -546 -3 -587 -3
-12 -8 -48 -12 -79 -14 -135 -64 -350 -119 -521 -191 -586 -559 -1101 -1051
-1469 -437 -327 -964 -526 -1515 -571 -205 -17 -475 -8 -673 23 -23 3 -51 7
-62 9 -164 22 -458 108 -660 193 -172 72 -492 246 -503 274 -2 4 -8 8 -13 8
-15 0 -184 129 -284 217 -255 222 -448 456 -621 753 -132 226 -250 516 -313
775 -97 393 -113 818 -46 1200 8 44 16 91 19 105 65 375 288 871 540 1200 138
181 343 393 506 524 97 77 314 225 404 274 304 166 675 296 956 336 19 3 51 7
70 10 88 13 122 16 225 22 61 3 111 7 112 8 3 3 193 -3 278 -8z"/>
<path d="M3387 6124 c-1 -1 -43 -5 -93 -8 -50 -4 -100 -8 -111 -10 -11 -3 -44
-7 -74 -11 -298 -37 -681 -174 -954 -340 -203 -125 -343 -234 -509 -400 -255
-255 -449 -547 -581 -875 -39 -98 -98 -274 -109 -330 -3 -14 -15 -66 -25 -117
-11 -51 -23 -114 -26 -140 -4 -26 -8 -55 -10 -63 -8 -31 -18 -219 -18 -335 0
-110 11 -313 18 -325 2 -3 6 -30 10 -60 29 -240 130 -556 258 -805 86 -168
231 -384 356 -529 58 -67 224 -228 303 -292 137 -113 157 -128 332 -238 63
-40 324 -169 366 -181 14 -4 39 -13 55 -21 156 -70 473 -140 720 -160 143 -12
499 -5 524 10 3 2 31 7 61 10 59 7 81 11 185 32 86 17 291 80 394 120 606 238
1111 704 1395 1288 115 236 180 430 225 671 20 108 23 126 37 270 13 132 6
458 -12 550 -2 11 -7 40 -10 65 -16 123 -60 299 -116 465 -158 465 -479 910
-878 1216 -335 257 -716 426 -1139 504 -38 7 -169 24 -246 31 -66 7 -323 13
-328 8z m308 -428 c185 -15 423 -72 612 -147 651 -258 1146 -821 1318 -1500
23 -88 47 -225 61 -339 5 -47 5 -368 0 -400 -3 -14 -7 -52 -11 -85 -3 -33 -10
-78 -15 -100 -5 -22 -12 -56 -15 -75 -12 -69 -70 -265 -96 -325 -5 -11 -26
-62 -48 -113 -160 -374 -460 -722 -826 -958 -227 -146 -578 -281 -805 -309
-30 -4 -57 -8 -60 -10 -30 -18 -411 -26 -550 -12 -153 16 -428 82 -545 132
-241 102 -371 174 -541 301 -479 358 -794 914 -863 1524 -9 81 -8 443 2 485 3
11 8 42 11 69 9 67 33 179 52 246 9 30 17 62 19 70 9 46 85 231 139 340 239
479 629 841 1131 1050 144 59 349 118 480 136 17 2 44 7 60 10 17 2 71 7 120
11 50 3 91 6 92 7 5 4 196 -2 278 -8z"/>
<path d="M3397 5414 c-1 -1 -37 -5 -80 -9 -89 -8 -98 -9 -225 -35 -549 -114
-1049 -503 -1305 -1015 -42 -85 -115 -267 -123 -309 -2 -10 -8 -33 -13 -50
-38 -120 -63 -323 -63 -511 -1 -141 5 -196 33 -345 6 -30 13 -68 16 -85 12
-68 87 -277 138 -383 133 -276 336 -522 587 -710 53 -39 99 -72 102 -72 3 0
22 -11 43 -25 58 -40 239 -128 333 -162 89 -33 253 -77 330 -88 25 -4 54 -9
65 -11 88 -17 342 -22 460 -10 39 4 113 17 165 27 52 11 106 22 120 25 73 15
251 82 365 139 386 190 686 491 873 875 56 115 133 324 145 395 3 17 13 67 21
113 75 409 7 848 -189 1219 -102 193 -212 339 -366 488 -83 80 -275 235 -292
235 -3 0 -23 12 -44 26 -146 101 -478 224 -668 250 -27 3 -53 8 -56 10 -14 8
-364 25 -372 18z m292 -799 c19 -3 68 -14 109 -26 299 -84 555 -289 699 -559
58 -110 106 -254 121 -360 11 -87 7 -319 -7 -380 -67 -282 -180 -477 -376
-646 -126 -109 -313 -207 -455 -239 -3 -1 -32 -7 -65 -15 -65 -15 -310 -20
-385 -8 -271 43 -537 197 -713 413 -152 187 -246 454 -245 700 1 575 423 1055
993 1128 39 5 280 -1 324 -8z"/>
</g>
</svg>
